<?xml version="1.0" encoding="UTF-8" standalone="no"?>
<svg
   xmlns:dc="http://purl.org/dc/elements/1.1/"
   xmlns:cc="http://creativecommons.org/ns#"
   xmlns:rdf="http://www.w3.org/1999/02/22-rdf-syntax-ns#"
   xmlns:svg="http://www.w3.org/2000/svg"
   xmlns="http://www.w3.org/2000/svg"
   width="100%"
   height="100%"
   viewBox="0 0 64 64"
   version="1.1"
   xml:space="preserve"
   style="fill-rule:evenodd;clip-rule:evenodd;stroke-linecap:round;stroke-linejoin:round;stroke-miterlimit:2;"
   id="svg15">
  <metadata
   id="metadata21">
    <rdf:RDF>
      <cc:Work
   rdf:about="">
        <dc:format>image/svg+xml</dc:format>

        <dc:type
   rdf:resource="http://purl.org/dc/dcmitype/StillImage" />

      </cc:Work>

    </rdf:RDF>

  </metadata>

  <defs
   id="defs19" />

  
  <path
   d="M22,18l-6,0c-1.657,0 -3,1.343 -3,3c0,7.095 0,24.844 0,31.939c0,1.657 1.343,3 3,3c7.105,0 24.895,0 32,0c1.657,0 3,-1.343 3,-3c0,-7.095 0,-24.844 0,-31.939c0,-1.657 -1.343,-3 -3,-3c-2.618,0 -6,0 -6,0"
   style="fill:none;stroke:#222a33;stroke-width:2px;"
   id="path3" />

  <path
   d="M43.5,53l1.376,0c1.173,0 2.124,-0.951 2.124,-2.124c0,-4.246 0,-13.376 0,-13.376"
   style="fill:none;stroke:#222a33;stroke-width:2px;"
   id="path5" />

  <path
   d="M36,47c0,-1.657 -1.343,-3 -3,-3c-0.654,0 -1.346,0 -2,0c-1.657,0 -3,1.343 -3,3c0,3.554 0,9 0,9l8,0l0,-9Z"
   style="fill:none;stroke:#222a33;stroke-width:2px;"
   id="path7" />

  <path
   d="M6,56l0,-21.044c0,-0.796 0.316,-1.559 0.879,-2.121c0.562,-0.563 1.325,-0.879 2.121,-0.879l4,0"
   style="fill:none;stroke:#222a33;stroke-width:2px;"
   id="path9" />

  <path
   d="M51,31.956l4,0c0.796,0 1.559,0.316 2.121,0.879c0.563,0.562 0.879,1.325 0.879,2.121c0,6.435 0,20.983 0,20.983"
   style="fill:none;stroke:#222a33;stroke-width:2px;"
   id="path11" />

  <path
   d="M22,16.464c0,-0.398 0.158,-0.779 0.439,-1.06c0.282,-0.282 0.663,-0.44 1.061,-0.44c1.181,0 2.819,0 4,0c0.828,0 1.5,-0.671 1.5,-1.5c0,-1.171 0,-2.792 0,-3.964c0,-0.828 0.672,-1.5 1.5,-1.5c0.916,0 2.084,0 3,0c0.828,0 1.5,0.672 1.5,1.5c0,1.172 0,2.793 0,3.964c0,0.829 0.672,1.5 1.5,1.5c1.181,0 2.819,0 4,0c0.398,0 0.779,0.158 1.061,0.44c0.281,0.281 0.439,0.662 0.439,1.06c0,0.926 0,2.11 0,3.036c0,0.398 -0.158,0.779 -0.439,1.061c-0.282,0.281 -0.663,0.439 -1.061,0.439c-1.181,0 -2.819,0 -4,0c-0.398,0 -0.779,0.158 -1.061,0.439c-0.281,0.282 -0.439,0.663 -0.439,1.061l0,4c0,0.828 -0.672,1.5 -1.5,1.5c-0.916,0 -2.084,0 -3,0c-0.828,0 -1.5,-0.672 -1.5,-1.5c0,-1.181 0,-2.819 0,-4c0,-0.398 -0.158,-0.779 -0.439,-1.061c-0.282,-0.281 -0.663,-0.439 -1.061,-0.439l-4,0c-0.398,0 -0.779,-0.158 -1.061,-0.439c-0.281,-0.282 -0.439,-0.663 -0.439,-1.061c0,-0.926 0,-2.11 0,-3.036Z"
   style="fill:none;stroke:#222a33;stroke-width:2px;"
   id="path13" />

</svg>
